<?xml version="1.0" encoding="UTF-8" standalone="no"?>
<!DOCTYPE svg PUBLIC "-//W3C//DTD SVG 1.1//EN" "http://www.w3.org/Graphics/SVG/1.1/DTD/svg11.dtd">
<svg width="100%" height="100%" viewBox="0 0 511 465" version="1.1" xmlns="http://www.w3.org/2000/svg" xmlns:xlink="http://www.w3.org/1999/xlink" xml:space="preserve" xmlns:serif="http://www.serif.com/" style="fill-rule:evenodd;clip-rule:evenodd;stroke-linejoin:round;stroke-miterlimit:2;">
    <g transform="matrix(1,0,0,1,-201.008,-278.685)">
        <g transform="matrix(1.15826,0,0,1.04067,-96.5831,-23.6122)">
            <path d="M474.37,530.809C475.055,529.438 476.355,528.587 477.765,528.587C479.175,528.587 480.474,529.438 481.16,530.809C483.931,536.351 487.819,544.128 490.54,549.569C491.209,550.909 491.192,552.542 490.494,553.864C489.796,555.185 488.522,555.996 487.145,555.996C481.653,555.996 473.876,555.996 468.384,555.996C467.007,555.996 465.733,555.185 465.035,553.864C464.337,552.542 464.32,550.909 464.99,549.569C467.71,544.128 471.599,536.351 474.37,530.809Z"/>
        </g>
        <path d="M433.338,285.402C432.549,284.009 432.56,282.302 433.366,280.919C434.173,279.536 435.653,278.685 437.254,278.685C448.336,278.685 468.202,278.685 475.327,278.685C476.954,278.685 478.453,279.563 479.25,280.981C497.032,312.627 692.952,661.305 710.304,692.186C711.066,693.544 711.073,695.198 710.322,696.562C705.912,704.569 690.699,732.187 686.168,740.412C685.377,741.848 683.867,742.741 682.227,742.741C675.675,742.741 658.551,742.741 648.42,742.741C646.809,742.741 645.32,741.879 644.518,740.483C643.715,739.086 643.721,737.366 644.532,735.974C650.344,726.004 660.917,707.869 664.587,701.573C665.39,700.196 665.404,698.496 664.624,697.105C658.311,685.85 630.151,635.652 623.782,624.297C622.988,622.883 621.496,622.005 619.874,621.998C598.046,621.915 446.504,621.333 410.892,621.196C409.313,621.19 407.853,620.357 407.045,619.001C406.236,617.645 406.197,615.965 406.942,614.573C411.805,605.486 420.329,589.56 423.534,583.571C424.314,582.114 425.831,581.202 427.484,581.195C446.556,581.118 561.743,580.652 592.753,580.527C594.351,580.52 595.825,579.667 596.627,578.285C597.429,576.903 597.438,575.2 596.651,573.809C573.948,533.718 456.09,325.581 433.338,285.402Z"/>
        <path d="M552.253,548.426C553.039,549.818 553.029,551.522 552.225,552.903C551.421,554.285 549.945,555.136 548.347,555.141C537.391,555.169 517.841,555.22 510.844,555.238C509.247,555.243 507.767,554.4 506.956,553.024C497.275,536.601 436.74,433.916 420.649,406.622C419.836,405.243 418.351,404.399 416.749,404.408C415.148,404.416 413.671,405.275 412.872,406.663C388.186,449.571 252.468,685.464 227.902,728.162C227.107,729.544 225.64,730.402 224.045,730.417C222.451,730.433 220.968,729.604 220.146,728.238C214.867,719.468 205.772,704.356 202.356,698.681C201.523,697.297 201.496,695.571 202.286,694.161C218.587,665.071 385.812,366.64 413.619,317.016C414.413,315.598 415.911,314.718 417.536,314.715C419.162,314.712 420.662,315.586 421.462,317.001C441.553,352.551 532.522,513.514 552.253,548.426Z"/>
        <path d="M412.805,460.793C413.611,459.388 415.11,458.526 416.729,458.534C418.349,458.542 419.839,459.419 420.631,460.831C426.207,470.766 436.202,488.572 439.693,494.793C440.466,496.17 440.461,497.85 439.68,499.222C430.459,515.423 373.24,615.95 357.853,642.983C357.063,644.373 357.068,646.078 357.868,647.462C358.669,648.846 360.143,649.701 361.742,649.709C401.311,649.908 580.945,650.808 604.651,650.927C606.251,650.935 607.727,651.792 608.527,653.179C613.241,661.359 629.498,689.564 634.216,697.75C635.017,699.139 635.018,700.849 634.219,702.24C630.648,708.452 620.529,726.056 614.878,735.887C614.072,737.29 612.575,738.151 610.958,738.145C609.34,738.138 607.851,737.264 607.057,735.855C600.594,724.391 587.938,701.941 583.872,694.729C583.075,693.315 581.578,692.44 579.954,692.439C554.792,692.427 356.841,692.332 331.708,692.32C330.088,692.319 328.593,693.189 327.793,694.598C323.198,702.691 307.698,729.989 303.105,738.077C302.306,739.484 300.813,740.354 299.195,740.355C291.941,740.36 271.364,740.375 259.999,740.383C258.393,740.384 256.908,739.529 256.102,738.138C255.297,736.748 255.294,735.035 256.094,733.641C278.408,694.791 390.299,499.978 412.805,460.793Z"/>
    </g>
</svg>
